<?xml version="1.0" encoding="UTF-8" standalone="no"?><!DOCTYPE svg PUBLIC "-//W3C//DTD SVG 1.1//EN" "http://www.w3.org/Graphics/SVG/1.1/DTD/svg11.dtd"><svg width="100%" height="100%" viewBox="0 0 4500 4500" version="1.1" xmlns="http://www.w3.org/2000/svg" xmlnsXlink="http://www.w3.org/1999/xlink" xmlSpace="preserve" xmlnsSerif="http://www.serif.com/" style="fill-rule:evenodd;clip-rule:evenodd;stroke-linejoin:round;stroke-miterlimit:2;"><g><g><path d="M1293.59,1350.39c-212.686,226.014 -346.258,527.309 -356.257,859.439l-803.551,0c10.325,-553.787 233.79,-1055.85 591.715,-1427.53l568.093,568.087Z" style="fill:#0bf;"/></g><g><path d="M782.301,725.499c371.675,-357.931 873.733,-581.39 1427.52,-591.722l0,803.558c-332.124,9.993 -633.419,143.564 -859.433,356.25l-568.087,-568.086Z" style="fill:#d9d5ec;"/><path d="M782.301,725.499c371.675,-357.931 873.733,-581.39 1427.52,-591.722l0,803.558c-332.124,9.993 -633.419,143.564 -859.433,356.25l-568.087,-568.086Zm59.791,0.865l509.602,509.601c220.106,-195.156 504.106,-319.82 816.461,-338.465c-0,0 -0,-720.843 -0,-720.843c-510.946,19.857 -974.716,224.849 -1326.06,549.707Z" style="fill:#0bf;"/></g><g><path d="M3206.39,3149.6c212.692,-226.014 346.257,-527.309 356.257,-859.439l803.551,-0c-10.326,553.787 -233.784,1055.85 -591.715,1427.53l-568.093,-568.087Z" style="fill:#0bf;"/></g><g><path d="M3717.68,3774.48c-371.674,357.931 -873.739,581.39 -1427.53,591.722l0,-803.558c332.13,-9.999 633.425,-143.565 859.433,-356.25l568.093,568.086Z" style="fill:#0bf;"/></g><g><path d="M937.329,2290.16c9.999,332.13 143.571,633.425 356.257,859.439l-568.093,568.087c-357.925,-371.675 -581.39,-873.739 -591.715,-1427.53l803.551,-0Z" style="fill:#0bf;"/></g><g><path d="M3562.65,2209.83c-10,-332.13 -143.565,-633.425 -356.257,-859.439l568.093,-568.087c357.931,371.675 581.389,873.739 591.715,1427.53l-803.551,0Z" style="fill:#0bf;"/></g><g><path d="M3149.59,1293.59c-226.008,-212.686 -527.303,-346.257 -859.433,-356.25l0,-803.558c553.787,10.332 1055.85,233.791 1427.53,591.722l-568.093,568.086Z" style="fill:#0bf;"/></g><g><path d="M1350.39,3206.4c226.014,212.685 527.309,346.251 859.433,356.25l0,803.558c-553.787,-10.332 -1055.85,-233.791 -1427.52,-591.722l568.087,-568.086Z" style="fill:#0bf;"/></g></g></svg>