<?xml version="1.0" encoding="UTF-8" standalone="no"?>
<!DOCTYPE svg PUBLIC "-//W3C//DTD SVG 1.1//EN" "http://www.w3.org/Graphics/SVG/1.1/DTD/svg11.dtd">
<svg width="100%" height="100%" viewBox="0 0 1080 1080" version="1.1" xmlns="http://www.w3.org/2000/svg" xmlnsXlink="http://www.w3.org/1999/xlink" xmlSpace="preserve" xmlnsSerif="http://www.serif.com/" style="fill-rule:evenodd;clip-rule:evenodd;stroke-linejoin:round;stroke-miterlimit:2;">
    <g>
        <g transform="matrix(1.53347,0,0,1.53347,-309.598,-298.666)">
            <path d="M404.35,406.111C371.063,441.484 350.158,488.639 348.593,540.62L222.831,540.62C224.447,453.948 259.421,375.371 315.439,317.201L404.35,406.111Z" style="fill:rgb(0,187,255);"/>
        </g>
        <g transform="matrix(1.53347,0,0,1.53347,-309.598,-298.666)">
            <path d="M324.33,308.311C382.5,252.292 461.076,217.319 547.748,215.702L547.748,341.465C495.768,343.029 448.613,363.934 413.24,397.221L324.33,308.311Z" style="fill:rgb(0,187,255);"/>
        </g>
        <g transform="matrix(1.53347,0,0,1.53347,-309.598,-298.666)">
            <path d="M703.719,687.701C737.007,652.328 757.911,605.173 759.476,553.192L885.238,553.192C883.622,639.864 848.649,718.441 792.63,776.611L703.719,687.701Z" style="fill:rgb(0,187,255);"/>
        </g>
        <g transform="matrix(1.53347,0,0,1.53347,-309.598,-298.666)">
            <path d="M783.74,785.501C725.57,841.52 646.993,876.493 560.321,878.11L560.321,752.347C612.302,750.782 659.457,729.878 694.829,696.591L783.74,785.501Z" style="fill:rgb(0,187,255);"/>
        </g>
        <g transform="matrix(1.53347,0,0,1.53347,-309.598,-298.666)">
            <path d="M348.593,553.192C350.158,605.173 371.063,652.328 404.35,687.701L315.439,776.611C259.421,718.441 224.447,639.864 222.831,553.192L348.593,553.192Z" style="fill:rgb(0,187,255);"/>
        </g>
        <g transform="matrix(1.53347,0,0,1.53347,-309.598,-298.666)">
            <path d="M759.476,540.62C757.911,488.639 737.007,441.484 703.719,406.111L792.63,317.201C848.649,375.371 883.622,453.948 885.238,540.62L759.476,540.62Z" style="fill:rgb(0,187,255);"/>
        </g>
        <g transform="matrix(1.53347,0,0,1.53347,-309.598,-298.666)">
            <path d="M694.829,397.221C659.457,363.934 612.302,343.029 560.321,341.465L560.321,215.702C646.993,217.319 725.57,252.292 783.74,308.311L694.829,397.221Z" style="fill:rgb(0,187,255);"/>
        </g>
        <g transform="matrix(1.53347,0,0,1.53347,-309.598,-298.666)">
            <path d="M413.24,696.591C448.613,729.878 495.768,750.782 547.748,752.347L547.748,878.11C461.076,876.493 382.5,841.52 324.33,785.501L413.24,696.591Z" style="fill:rgb(0,187,255);"/>
        </g>
    </g>
</svg>
